<?xml version="1.0"?>
<svg xmlns="http://www.w3.org/2000/svg" xmlns:xlink="http://www.w3.org/1999/xlink" xmlns:svgjs="http://svgjs.com/svgjs" version="1.1" width="512" height="512" x="0" y="0" viewBox="0 0 512.019 512.019" style="enable-background:new 0 0 512 512" xml:space="preserve" class=""><g>
<path xmlns="http://www.w3.org/2000/svg" style="" d="M318.689,325.675c-45.44,48.935-85.662,83.991-120.734,109.132  c19.148,6.59,44.399,17.05,65.781,17.05c103.582,0,187.555-83.974,187.555-187.555c0-23.572-9.113-52.942-17.05-73.726  C407.394,229.229,370.087,274.276,318.689,325.675z" fill="#ff0000" data-original="#f67b00" class=""/>
<path xmlns="http://www.w3.org/2000/svg" style="" d="M458.784,8.587c-63.556,2.779-143.897,83.607-143.897,83.607l43.104,18.653  c119.353-68.202,50.674,42.626,50.674,42.626s-0.571,0.75-1.611,2.123c-0.026,0.034-0.043,0.051-0.068,0.094  c-16.59,21.722-152.499,197.564-252.466,261.009c-0.009,0.009-0.017,0.009-0.026,0.017l0,0c-0.529,0.332-1.066,0.716-1.594,1.04  c-125.381,78.364-56.335-30.469-44.34-48.594c-2.396-3.538-4.868-7.016-7.025-10.725c0.128-0.205,0.222-0.358,0.222-0.358  l-12.515-25.03c-0.452-1.151-0.776-2.362-1.202-3.521l-3.333-14.075c0,0-72.294,80.819-75.073,144.383  c-1.049,23.871,18.568,44.118,42.447,43.649c41.842-0.827,132.363-21.322,271.333-170.982  C468.34,187.574,501.606,92.876,502.433,51.034C502.902,27.155,482.654,7.547,458.784,8.587z" fill="#c00000" data-original="#f7d54b" class=""/>
<path xmlns="http://www.w3.org/2000/svg" style="" d="M101.755,358.079c0,0-0.085,0.153-0.213,0.367c13.359,22.975,31.45,42.831,52.95,58.27  c106.625-67.656,254.171-263.242,254.171-263.242s1.117-1.739,2.822-4.621c-14.697-18.781-32.873-34.672-53.59-46.727  c-0.136,0.068-16.923-8.721-16.923-8.721c-23.555-10.665-49.694-16.658-77.239-16.658c-103.582,0-187.555,83.974-187.555,187.555  c0,24.28,4.663,47.451,13.061,68.747L101.755,358.079z" fill="#ff0000" data-original="#f67b00" class=""/>
<g xmlns="http://www.w3.org/2000/svg">
	<path style="" d="M154.203,426.997l-4.672-3.359c-22.379-16.07-41.518-37.127-55.354-60.913l-2.472-4.237l0.384-0.682   L81.61,336.851c-9.361-23.649-13.956-47.835-13.956-72.55c0-108.117,87.963-196.08,196.08-196.08   c28.065,0,55.243,5.857,80.76,17.409l13.044,7.025l0.162-0.085l4.484,2.182c21.68,12.617,40.529,29.054,56.011,48.841l3.589,4.595   l-2.975,5.013c-1.799,3.026-2.967,4.851-2.967,4.851c-6.437,8.585-150.078,198.143-256.789,265.851L154.203,426.997z    M111.397,358.292c11.381,18.389,26.266,34.843,43.436,48.048c99.558-66.071,234.205-241.162,246.183-256.882   c-12.72-15.2-27.707-28.065-44.655-38.338l-2.89-1.296l-16.53-8.917c-22.771-10.281-47.571-15.635-73.206-15.635   c-98.722,0-179.03,80.308-179.03,179.03c0,22.566,4.194,44.638,12.464,65.619L111.397,358.292z M101.755,358.088l0.196,0.119h0.009   L101.755,358.088z" fill="#000000" data-original="#4d007e" class=""/>
	<path style="" d="M263.735,460.382c-21.756,0-43.231-3.589-63.828-10.682l-15.61-5.371l13.419-9.616   c38.031-27.264,78.219-63.607,119.456-108.006l0.222-0.222c46.812-46.812,85.363-91.876,114.571-133.931l9.207-13.257l5.755,15.081   c8.551,22.396,12.89,45.925,12.89,69.941C459.815,372.427,371.852,460.382,263.735,460.382z M221.535,438.293   c13.802,3.35,27.937,5.038,42.2,5.038c98.722,0,179.03-80.308,179.03-179.03c0-16.42-2.217-32.592-6.616-48.27   c-28.38,38.849-64.169,79.95-106.6,122.38C292.55,378.267,256.284,411.788,221.535,438.293z" fill="#000000" data-original="#4d007e" class=""/>
	<path style="" d="M51.295,512.019c-13.342,0-26.351-5.507-35.815-15.2c-9.736-9.966-14.97-23.589-14.374-37.358   c2.89-66.105,74.519-138.458,77.571-141.51l7.724-7.724l9.616,16.317c0.239,0.648,0.46,1.304,0.674,1.969   c0.153,0.469,0.298,0.938,0.477,1.398l13.905,27.741c1.032,1.586,2.097,3.137,3.163,4.697l4.587,6.752l-3.154,4.766   c-22.856,34.536-30.895,58.824-27.912,63.078l0,0c0.034,0,9.386,5.601,60.623-26.428l1.56-1.023   c99.021-62.848,235.066-239.099,250.25-258.988l1.662-2.182c15.652-24.425,26.369-52.703,21.671-57.656   c-0.068-0.068-7.545-7.076-53.274,19.045l-3.7,2.114l-58.534-25.328l8.875-8.875c3.044-3.044,75.406-74.673,141.51-77.571l0,0   c13.811-0.648,27.392,4.629,37.358,14.374c9.923,9.685,15.456,23.086,15.192,36.761c-1.969,100.154-139.43,245.245-181.519,287.326   C198.133,479.947,106.206,510.945,52.249,512.011C51.925,512.019,51.61,512.019,51.295,512.019z M82.574,338.778   c-18.542,20.691-62.362,74.374-64.425,121.433c-0.392,9.079,3.078,18.091,9.54,24.698c6.505,6.667,15.166,10.128,24.229,10.051   c96.616-1.901,207.658-106.233,265.254-168.254C479.338,164.531,493.447,74.581,493.908,50.872   c0.179-9.122-3.385-17.732-10.051-24.229c-6.616-6.454-15.627-9.906-24.698-9.54l0,0c-46.642,2.038-99.779,45.098-120.871,63.922   l27.247,11.79c37.733-21.066,59.515-25.311,70.367-13.879c17.042,17.954-11.049,65.124-20.068,79.148l-2.012,2.685   c-15.448,20.23-153.224,198.706-254.734,263.131l-1.654,1.083c-45.806,28.619-70.299,35.755-81.91,23.837   c-11.373-11.68-3.708-38.432,22.788-79.557c-1.441-2.14-2.839-4.297-4.143-6.53l-2.464-4.246l0.384-0.673L82.574,338.778z" fill="#000000" data-original="#4d007e" class=""/>
	<path style="" d="M161.432,170.524c-2.106,0-4.211-0.767-5.857-2.327c-3.419-3.231-3.572-8.628-0.341-12.055   c26.411-27.937,67.98-45.295,108.475-45.295c0.009,0,0.017,0,0.026,0c4.714,0,8.525,3.819,8.525,8.525   c0,4.706-3.819,8.525-8.525,8.525l0,0c-0.009,0-0.017,0-0.026,0c-35.968,0-72.78,15.311-96.079,39.958   C165.95,169.629,163.691,170.524,161.432,170.524z" fill="#000000" data-original="#4d007e" class=""/>
	<path style="" d="M122.088,292.997c-4.075,0-7.673-2.924-8.389-7.076c-2.242-13.01-3.393-26.019-3.41-38.653   c-0.009-4.706,3.802-8.525,8.517-8.534h0.009c4.706,0,8.517,3.811,8.525,8.517c0.017,11.68,1.083,23.717,3.163,35.78   c0.801,4.638-2.31,9.054-6.948,9.847C123.051,292.963,122.565,292.997,122.088,292.997z" fill="#000000" data-original="#4d007e" class=""/>
	<path style="" d="M143.665,329.093c-1.884-4.314-6.914-6.283-11.228-4.391c-4.314,1.884-6.283,6.914-4.39,11.228   c3.7,8.466,7.826,14.51,12.677,20.674c2.941,3.743,8.414,4.288,12.089,1.262l0,0c3.598-2.967,4.109-8.244,1.228-11.91   C149.838,340.611,146.607,335.811,143.665,329.093z" fill="#000000" data-original="#4d007e" class=""/>
</g>
<g xmlns="http://www.w3.org/2000/svg">
</g>
<g xmlns="http://www.w3.org/2000/svg">
</g>
<g xmlns="http://www.w3.org/2000/svg">
</g>
<g xmlns="http://www.w3.org/2000/svg">
</g>
<g xmlns="http://www.w3.org/2000/svg">
</g>
<g xmlns="http://www.w3.org/2000/svg">
</g>
<g xmlns="http://www.w3.org/2000/svg">
</g>
<g xmlns="http://www.w3.org/2000/svg">
</g>
<g xmlns="http://www.w3.org/2000/svg">
</g>
<g xmlns="http://www.w3.org/2000/svg">
</g>
<g xmlns="http://www.w3.org/2000/svg">
</g>
<g xmlns="http://www.w3.org/2000/svg">
</g>
<g xmlns="http://www.w3.org/2000/svg">
</g>
<g xmlns="http://www.w3.org/2000/svg">
</g>
<g xmlns="http://www.w3.org/2000/svg">
</g>
</g></svg>
